<svg width="1519" height="1534" viewBox="0 0 1519 1534" fill="none" xmlns="http://www.w3.org/2000/svg">
<path d="M251.072 1468.81L27.5632 1042.31C-79.9365 800.304 227.563 729.304 302.063 897.807L509.566 1306.81C592.566 1515.31 323.566 1594.31 251.072 1468.81Z" fill="#04909C" stroke="#04909C" stroke-width="10" stroke-linejoin="round"/>
<path d="M310.562 626.805L366.06 738.806C476.393 952.64 712.562 1425.3 726.562 1450.8C855.562 1628.3 1087.06 1466.8 1003.06 1299.3L923.06 1145.31L719.56 747.806L577.559 467.306C466.062 309.804 223.062 456.304 310.562 626.805Z" fill="#04909C" stroke="#04909C" stroke-width="10" stroke-linejoin="round"/>
<path d="M1215.06 1445.31L598.064 221.806C513.563 27.804 797.563 -78.1956 880.564 85.8059L1498.06 1308.31C1581.06 1510.81 1295.56 1604.31 1215.06 1445.31Z" fill="#04909C" stroke="#04909C" stroke-width="10" stroke-linejoin="round"/>
</svg>
