<svg width="5769" height="1828" viewBox="0 0 5769 1828" fill="none" xmlns="http://www.w3.org/2000/svg">
<path d="M251.51 1630.5L28.0007 1204C-79.499 962 228 891 302.5 1059.5L510.003 1468.5C593.003 1677 324.003 1756 251.51 1630.5Z" fill="#04909C" stroke="#04909C" stroke-width="10" stroke-linejoin="round"/>
<path d="M311 788.501L366.498 900.502C476.831 1114.34 713 1587 727 1612.5C856 1790 1087.5 1628.5 1003.5 1461L923.498 1307L719.998 909.502L577.997 629.001C466.5 471.5 223.5 618 311 788.501Z" fill="#04909C" stroke="#04909C" stroke-width="10" stroke-linejoin="round"/>
<path d="M1215.5 1607L598.501 383.502C514 189.5 798 83.5002 881.001 247.502L1498.5 1470C1581.5 1672.5 1296 1766 1215.5 1607Z" fill="#04909C" stroke="#04909C" stroke-width="10" stroke-linejoin="round"/>
<line x1="1742" y1="6.11959e-07" x2="1742" y2="1809" stroke="black" stroke-width="28"/>
<path d="M2166.36 411.636H2224.32L2272.9 475.557L2285.68 492.602L2358.12 588.909H2300.17L2252.44 524.989L2240.51 508.795L2166.36 411.636ZM2376.02 329.818C2376.02 375.841 2367.71 415.614 2351.09 449.136C2334.47 482.659 2311.68 508.511 2282.7 526.693C2253.72 544.875 2220.63 553.966 2183.41 553.966C2146.19 553.966 2113.1 544.875 2084.12 526.693C2055.14 508.511 2032.34 482.659 2015.72 449.136C1999.11 415.614 1990.8 375.841 1990.8 329.818C1990.8 283.795 1999.11 244.023 2015.72 210.5C2032.34 176.977 2055.14 151.125 2084.12 132.943C2113.1 114.761 2146.19 105.67 2183.41 105.67C2220.63 105.67 2253.72 114.761 2282.7 132.943C2311.68 151.125 2334.47 176.977 2351.09 210.5C2367.71 244.023 2376.02 283.795 2376.02 329.818ZM2324.89 329.818C2324.89 292.034 2318.57 260.145 2305.92 234.151C2293.42 208.156 2276.45 188.483 2255 175.131C2233.69 161.778 2209.83 155.102 2183.41 155.102C2156.99 155.102 2133.05 161.778 2111.61 175.131C2090.3 188.483 2073.32 208.156 2060.68 234.151C2048.18 260.145 2041.93 292.034 2041.93 329.818C2041.93 367.602 2048.18 399.491 2060.68 425.486C2073.32 451.48 2090.3 471.153 2111.61 484.506C2133.05 497.858 2156.99 504.534 2183.41 504.534C2209.83 504.534 2233.69 497.858 2255 484.506C2276.45 471.153 2293.42 451.48 2305.92 425.486C2318.57 399.491 2324.89 367.602 2324.89 329.818ZM2473.84 158.511V111.636H2801.12V158.511H2663.9V548H2611.06V158.511H2473.84ZM3172.31 220.727C3169.75 199.136 3159.38 182.375 3141.2 170.443C3123.02 158.511 3100.71 152.545 3074.29 152.545C3054.98 152.545 3038.07 155.67 3023.58 161.92C3009.24 168.17 2998.02 176.764 2989.92 187.702C2981.96 198.639 2977.99 211.068 2977.99 224.989C2977.99 236.636 2980.76 246.651 2986.3 255.031C2991.98 263.27 2999.22 270.159 3008.03 275.699C3016.84 281.097 3026.07 285.571 3035.73 289.122C3045.39 292.531 3054.27 295.301 3062.36 297.432L3106.68 309.364C3118.04 312.347 3130.69 316.466 3144.61 321.722C3158.67 326.977 3172.09 334.151 3184.88 343.241C3197.8 352.19 3208.46 363.696 3216.84 377.759C3225.22 391.821 3229.41 409.08 3229.41 429.534C3229.41 453.114 3223.23 474.42 3210.87 493.455C3198.65 512.489 3180.76 527.616 3157.18 538.838C3133.74 550.06 3105.26 555.67 3071.74 555.67C3040.49 555.67 3013.43 550.628 2990.56 540.543C2967.83 530.457 2949.93 516.395 2936.87 498.355C2923.94 480.315 2916.62 459.364 2914.92 435.5H2969.46C2970.88 451.977 2976.42 465.614 2986.08 476.409C2995.88 487.062 3008.24 495.017 3023.16 500.273C3038.21 505.386 3054.41 507.943 3071.74 507.943C3091.91 507.943 3110.02 504.676 3126.07 498.142C3142.12 491.466 3154.83 482.233 3164.21 470.443C3173.58 458.511 3178.27 444.591 3178.27 428.682C3178.27 414.193 3174.22 402.403 3166.13 393.312C3158.03 384.222 3147.38 376.835 3134.17 371.153C3120.96 365.472 3106.68 360.5 3091.34 356.239L3037.65 340.898C3003.56 331.097 2976.57 317.105 2956.68 298.923C2936.79 280.741 2926.85 256.949 2926.85 227.545C2926.85 203.114 2933.46 181.807 2946.67 163.625C2960.02 145.301 2977.92 131.097 3000.36 121.011C3022.94 110.784 3048.16 105.67 3076 105.67C3104.12 105.67 3129.12 110.713 3151 120.798C3172.87 130.741 3190.2 144.378 3202.99 161.707C3215.91 179.037 3222.73 198.71 3223.44 220.727H3172.31ZM2060.68 771.636V1208H2007.84V771.636H2060.68ZM2261.1 1011.12V1208H2210.81V880.727H2259.39V931.864H2263.65C2271.32 915.244 2282.97 901.892 2298.6 891.807C2314.22 881.58 2334.39 876.466 2359.11 876.466C2381.27 876.466 2400.66 881.011 2417.27 890.102C2433.89 899.051 2446.82 912.688 2456.05 931.011C2465.29 949.193 2469.9 972.205 2469.9 1000.05V1208H2419.62V1003.45C2419.62 977.744 2412.94 957.716 2399.59 943.369C2386.24 928.881 2367.91 921.636 2344.62 921.636C2328.57 921.636 2314.22 925.116 2301.58 932.077C2289.08 939.037 2279.21 949.193 2271.96 962.545C2264.72 975.898 2261.1 992.091 2261.1 1011.12ZM2844.61 954.023L2799.44 966.807C2796.6 959.278 2792.4 951.963 2786.87 944.861C2781.47 937.616 2774.08 931.651 2764.71 926.963C2755.33 922.276 2743.33 919.932 2728.7 919.932C2708.67 919.932 2691.98 924.548 2678.63 933.781C2665.42 942.872 2658.81 954.449 2658.81 968.511C2658.81 981.011 2663.36 990.884 2672.45 998.128C2681.54 1005.37 2695.74 1011.41 2715.06 1016.24L2763.64 1028.17C2792.9 1035.27 2814.71 1046.14 2829.05 1060.77C2843.4 1075.26 2850.57 1093.94 2850.57 1116.81C2850.57 1135.56 2845.17 1152.32 2834.38 1167.09C2823.73 1181.86 2808.81 1193.51 2789.63 1202.03C2770.46 1210.56 2748.16 1214.82 2722.73 1214.82C2689.35 1214.82 2661.72 1207.57 2639.85 1193.09C2617.97 1178.6 2604.12 1157.43 2598.3 1129.59L2646.03 1117.66C2650.57 1135.27 2659.17 1148.48 2671.81 1157.29C2684.59 1166.1 2701.28 1170.5 2721.88 1170.5C2745.32 1170.5 2763.92 1165.53 2777.7 1155.59C2791.62 1145.5 2798.58 1133.43 2798.58 1119.36C2798.58 1108 2794.61 1098.48 2786.65 1090.81C2778.7 1083 2766.48 1077.18 2750 1073.34L2695.46 1060.56C2665.49 1053.45 2643.47 1042.45 2629.41 1027.53C2615.49 1012.47 2608.53 993.653 2608.53 971.068C2608.53 952.602 2613.71 936.267 2624.08 922.062C2634.59 907.858 2648.87 896.707 2666.91 888.611C2685.09 880.514 2705.69 876.466 2728.7 876.466C2761.08 876.466 2786.51 883.568 2804.98 897.773C2823.58 911.977 2836.79 930.727 2844.61 954.023ZM3119.59 880.727V923.341H2949.99V880.727H3119.59ZM2999.42 802.318H3049.71V1114.25C3049.71 1128.45 3051.77 1139.11 3055.89 1146.21C3060.15 1153.17 3065.55 1157.86 3072.08 1160.27C3078.76 1162.55 3085.79 1163.68 3093.17 1163.68C3098.71 1163.68 3103.26 1163.4 3106.81 1162.83C3110.36 1162.12 3113.2 1161.55 3115.33 1161.12L3125.56 1206.3C3122.15 1207.57 3117.39 1208.85 3111.28 1210.13C3105.18 1211.55 3097.44 1212.26 3088.06 1212.26C3073.86 1212.26 3059.94 1209.21 3046.3 1203.1C3032.8 1196.99 3021.58 1187.69 3012.63 1175.19C3003.83 1162.69 2999.42 1146.92 2999.42 1127.89V802.318ZM3246.23 1208V880.727H3294.81V930.159H3298.22C3304.19 913.966 3314.98 900.827 3330.61 890.741C3346.23 880.656 3363.85 875.614 3383.45 875.614C3387.14 875.614 3391.76 875.685 3397.3 875.827C3402.84 875.969 3407.03 876.182 3409.87 876.466V927.602C3408.17 927.176 3404.26 926.537 3398.15 925.685C3392.19 924.69 3385.86 924.193 3379.19 924.193C3363.28 924.193 3349.07 927.531 3336.57 934.207C3324.22 940.741 3314.42 949.832 3307.17 961.48C3300.07 972.986 3296.52 986.125 3296.52 1000.9V1208H3246.23ZM3726.73 1074.19V880.727H3777.01V1208H3726.73V1152.6H3723.32C3715.65 1169.22 3703.71 1183.36 3687.52 1195C3671.33 1206.51 3650.87 1212.26 3626.16 1212.26C3605.7 1212.26 3587.52 1207.79 3571.61 1198.84C3555.7 1189.75 3543.2 1176.11 3534.11 1157.93C3525.02 1139.61 3520.48 1116.52 3520.48 1088.68V880.727H3570.76V1085.27C3570.76 1109.14 3577.44 1128.17 3590.79 1142.38C3604.28 1156.58 3621.47 1163.68 3642.35 1163.68C3654.85 1163.68 3667.56 1160.49 3680.49 1154.09C3693.56 1147.7 3704.5 1137.9 3713.3 1124.69C3722.25 1111.48 3726.73 1094.65 3726.73 1074.19ZM3920.11 1208V880.727H3968.69V931.864H3972.95C3979.77 914.392 3990.78 900.827 4005.98 891.168C4021.17 881.366 4039.43 876.466 4060.73 876.466C4082.32 876.466 4100.29 881.366 4114.64 891.168C4129.13 900.827 4140.42 914.392 4148.52 931.864H4151.93C4160.31 914.96 4172.88 901.537 4189.64 891.594C4206.4 881.509 4226.5 876.466 4249.94 876.466C4279.2 876.466 4303.13 885.628 4321.74 903.952C4340.35 922.134 4349.65 950.472 4349.65 988.966V1208H4299.37V988.966C4299.37 964.818 4292.76 947.56 4279.55 937.19C4266.34 926.821 4250.79 921.636 4232.89 921.636C4209.88 921.636 4192.05 928.597 4179.41 942.517C4166.77 956.295 4160.45 973.767 4160.45 994.932V1208H4109.31V983.852C4109.31 965.244 4103.28 950.259 4091.2 938.895C4079.13 927.389 4063.57 921.636 4044.54 921.636C4031.47 921.636 4019.26 925.116 4007.89 932.077C3996.67 939.037 3987.58 948.696 3980.62 961.054C3973.8 973.27 3970.39 987.403 3970.39 1003.45V1208H3920.11ZM4629.81 1214.82C4598.27 1214.82 4571.07 1207.86 4548.2 1193.94C4525.48 1179.88 4507.93 1160.27 4495.58 1135.13C4483.36 1109.85 4477.25 1080.44 4477.25 1046.92C4477.25 1013.4 4483.36 983.852 4495.58 958.284C4507.93 932.574 4525.12 912.545 4547.14 898.199C4569.3 883.71 4595.15 876.466 4624.7 876.466C4641.74 876.466 4658.57 879.307 4675.19 884.989C4691.81 890.67 4706.94 899.903 4720.58 912.688C4734.21 925.33 4745.08 942.091 4753.18 962.972C4761.27 983.852 4765.32 1009.56 4765.32 1040.1V1061.41H4513.05V1017.94H4714.18C4714.18 999.477 4710.49 983 4703.1 968.511C4695.86 954.023 4685.49 942.588 4672 934.207C4658.64 925.827 4642.88 921.636 4624.7 921.636C4604.67 921.636 4587.34 926.608 4572.71 936.551C4558.22 946.352 4547.07 959.136 4539.25 974.903C4531.44 990.67 4527.54 1007.57 4527.54 1025.61V1054.59C4527.54 1079.31 4531.8 1100.26 4540.32 1117.45C4548.99 1134.49 4560.99 1147.49 4576.33 1156.44C4591.67 1165.24 4609.5 1169.65 4629.81 1169.65C4643.02 1169.65 4654.95 1167.8 4665.6 1164.11C4676.4 1160.27 4685.7 1154.59 4693.52 1147.06C4701.33 1139.39 4707.37 1129.87 4711.63 1118.51L4760.21 1132.15C4755.09 1148.62 4746.5 1163.11 4734.43 1175.61C4722.35 1187.97 4707.44 1197.63 4689.68 1204.59C4671.93 1211.41 4651.97 1214.82 4629.81 1214.82ZM4943.1 1011.12V1208H4892.81V880.727H4941.39V931.864H4945.65C4953.32 915.244 4964.97 901.892 4980.6 891.807C4996.22 881.58 5016.39 876.466 5041.11 876.466C5063.27 876.466 5082.66 881.011 5099.27 890.102C5115.89 899.051 5128.82 912.688 5138.05 931.011C5147.29 949.193 5151.9 972.205 5151.9 1000.05V1208H5101.62V1003.45C5101.62 977.744 5094.94 957.716 5081.59 943.369C5068.24 928.881 5049.91 921.636 5026.62 921.636C5010.57 921.636 4996.22 925.116 4983.58 932.077C4971.08 939.037 4961.21 949.193 4953.96 962.545C4946.72 975.898 4943.1 992.091 4943.1 1011.12ZM5437.12 880.727V923.341H5267.52V880.727H5437.12ZM5316.95 802.318H5367.23V1114.25C5367.23 1128.45 5369.29 1139.11 5373.41 1146.21C5377.67 1153.17 5383.07 1157.86 5389.6 1160.27C5396.28 1162.55 5403.31 1163.68 5410.7 1163.68C5416.24 1163.68 5420.78 1163.4 5424.33 1162.83C5427.88 1162.12 5430.73 1161.55 5432.86 1161.12L5443.08 1206.3C5439.67 1207.57 5434.92 1208.85 5428.81 1210.13C5422.7 1211.55 5414.96 1212.26 5405.58 1212.26C5391.38 1212.26 5377.46 1209.21 5363.82 1203.1C5350.33 1196.99 5339.11 1187.69 5330.16 1175.19C5321.35 1162.69 5316.95 1146.92 5316.95 1127.89V802.318Z" fill="black"/>
<path d="M2020.51 1759V1488.64H1965.43V1467.4H2101.51V1488.64H2047.87V1759H2020.51ZM2176.51 1762.24C2163.55 1762.24 2152.87 1759.72 2144.47 1754.68C2136.31 1749.4 2130.19 1740.76 2126.11 1728.76C2122.27 1716.76 2120.35 1700.8 2120.35 1680.88V1628.32C2120.35 1607.68 2122.39 1591.6 2126.47 1580.08C2130.55 1568.32 2136.79 1560.04 2145.19 1555.24C2153.59 1550.2 2164.15 1547.68 2176.87 1547.68C2191.51 1547.68 2202.67 1550.8 2210.35 1557.04C2218.03 1563.28 2223.31 1572.76 2226.19 1585.48C2229.31 1597.96 2230.87 1614.04 2230.87 1633.72V1652.44H2146.63V1688.8C2146.63 1702.24 2147.59 1712.92 2149.51 1720.84C2151.67 1728.52 2154.91 1734.04 2159.23 1737.4C2163.79 1740.76 2169.55 1742.44 2176.51 1742.44C2181.79 1742.44 2186.59 1741.48 2190.91 1739.56C2195.23 1737.4 2198.59 1733.44 2200.99 1727.68C2203.63 1721.68 2204.95 1713.28 2204.95 1702.48V1688.08H2230.51V1699.6C2230.51 1718.56 2226.55 1733.8 2218.63 1745.32C2210.95 1756.6 2196.91 1762.24 2176.51 1762.24ZM2146.63 1637.32H2204.95V1620.04C2204.95 1609 2204.35 1599.64 2203.15 1591.96C2201.95 1584.04 2199.31 1578.04 2195.23 1573.96C2191.39 1569.64 2185.15 1567.48 2176.51 1567.48C2169.31 1567.48 2163.43 1569.04 2158.87 1572.16C2154.55 1575.28 2151.43 1580.92 2149.51 1589.08C2147.59 1597 2146.63 1608.4 2146.63 1623.28V1637.32ZM2313.86 1762.24C2297.3 1762.24 2284.1 1756.96 2274.26 1746.4C2264.42 1735.6 2258.78 1721.2 2257.34 1703.2L2279.3 1696.36C2280.74 1712.44 2284.46 1724.2 2290.46 1731.64C2296.46 1738.84 2304.86 1742.44 2315.66 1742.44C2324.78 1742.44 2331.74 1739.92 2336.54 1734.88C2341.58 1729.6 2344.1 1722.28 2344.1 1712.92C2344.1 1706.2 2342.06 1699.48 2337.98 1692.76C2333.9 1685.8 2327.54 1678.6 2318.9 1671.16L2290.46 1646.68C2281.1 1638.76 2274.02 1630.84 2269.22 1622.92C2264.42 1615 2262.02 1605.52 2262.02 1594.48C2262.02 1584.4 2264.06 1576 2268.14 1569.28C2272.46 1562.32 2278.34 1557.04 2285.78 1553.44C2293.22 1549.6 2301.86 1547.68 2311.7 1547.68C2327.54 1547.68 2339.54 1552.84 2347.7 1563.16C2355.86 1573.24 2360.3 1586.32 2361.02 1602.4L2342.3 1608.52C2341.82 1599.16 2340.38 1591.48 2337.98 1585.48C2335.58 1579.24 2332.22 1574.68 2327.9 1571.8C2323.82 1568.92 2318.78 1567.48 2312.78 1567.48C2304.86 1567.48 2298.38 1569.76 2293.34 1574.32C2288.54 1578.64 2286.14 1584.76 2286.14 1592.68C2286.14 1598.92 2287.34 1604.44 2289.74 1609.24C2292.14 1614.04 2296.58 1619.44 2303.06 1625.44L2332.58 1651.72C2338.34 1656.76 2343.86 1662.16 2349.14 1667.92C2354.42 1673.68 2358.74 1680.16 2362.1 1687.36C2365.46 1694.32 2367.14 1702.6 2367.14 1712.2C2367.14 1723 2364.86 1732.12 2360.3 1739.56C2355.98 1746.76 2349.86 1752.4 2341.94 1756.48C2334.02 1760.32 2324.66 1762.24 2313.86 1762.24ZM2446.44 1761.52C2436.36 1761.52 2428.56 1759.6 2423.04 1755.76C2417.76 1751.68 2414.04 1746.28 2411.88 1739.56C2409.96 1732.6 2409 1724.68 2409 1715.8V1568.2H2383.44V1550.92H2409V1486.48H2435.28V1550.92H2469.84V1568.2H2435.28V1713.28C2435.28 1723.36 2436.36 1730.56 2438.52 1734.88C2440.92 1738.96 2445.96 1741 2453.64 1741C2455.8 1741 2458.2 1740.88 2460.84 1740.64C2463.72 1740.16 2466.36 1739.68 2468.76 1739.2V1759.36C2465.16 1760.08 2461.44 1760.56 2457.6 1760.8C2453.76 1761.28 2450.04 1761.52 2446.44 1761.52ZM2500.9 1759V1550.92H2527.18V1759H2500.9ZM2500.9 1522.12V1486.48H2527.18V1522.12H2500.9ZM2571.5 1759V1550.92H2597.78V1572.52C2604.5 1565.32 2612.06 1559.44 2620.46 1554.88C2628.86 1550.08 2637.98 1547.68 2647.82 1547.68C2654.78 1547.68 2660.66 1549.48 2665.46 1553.08C2670.26 1556.44 2673.86 1561.48 2676.26 1568.2C2678.66 1574.68 2679.86 1582.6 2679.86 1591.96V1759H2653.58V1597.72C2653.58 1586.92 2651.9 1579.36 2648.54 1575.04C2645.42 1570.48 2640.5 1568.2 2633.78 1568.2C2627.78 1568.2 2621.66 1570 2615.42 1573.6C2609.18 1577.2 2603.3 1581.88 2597.78 1587.64V1759H2571.5ZM2771.72 1827.4C2758.04 1827.4 2746.16 1826.08 2736.08 1823.44C2726 1820.8 2718.2 1816.6 2712.68 1810.84C2707.4 1805.32 2704.76 1798.24 2704.76 1789.6C2704.76 1782.64 2706.44 1776.28 2709.8 1770.52C2713.16 1764.76 2717.48 1759.72 2722.76 1755.4C2728.04 1750.84 2733.44 1747.12 2738.96 1744.24C2731.04 1742.08 2725.16 1739.08 2721.32 1735.24C2717.72 1731.4 2715.92 1726.84 2715.92 1721.56C2715.92 1714.36 2718.08 1707.88 2722.4 1702.12C2726.96 1696.36 2733.08 1690.24 2740.76 1683.76C2731.16 1677.04 2724.32 1668.4 2720.24 1657.84C2716.4 1647.28 2714.48 1634.8 2714.48 1620.4C2714.48 1606.96 2716.52 1594.84 2720.6 1584.04C2724.92 1573 2731.28 1564.24 2739.68 1557.76C2748.32 1551.04 2759.36 1547.68 2772.8 1547.68C2785.04 1547.68 2794.64 1550.2 2801.6 1555.24C2808.56 1560.28 2813.84 1566.4 2817.44 1573.6C2819.6 1570.24 2823.32 1566.16 2828.6 1561.36C2833.88 1556.32 2839.52 1552.6 2845.52 1550.2L2850.92 1548.4L2858.12 1566.76C2854.28 1567.48 2850.08 1568.92 2845.52 1571.08C2840.96 1573 2836.64 1575.16 2832.56 1577.56C2828.72 1579.96 2825.84 1582.36 2823.92 1584.76C2825.6 1589.08 2827.04 1594.96 2828.24 1602.4C2829.68 1609.84 2830.4 1616.08 2830.4 1621.12C2830.4 1634.8 2828.48 1647.16 2824.64 1658.2C2821.04 1669.24 2815.04 1678 2806.64 1684.48C2798.48 1690.72 2787.32 1693.84 2773.16 1693.84C2769.56 1693.84 2765.72 1693.48 2761.64 1692.76C2757.8 1692.04 2754.56 1691.32 2751.92 1690.6C2748.56 1694.2 2745.32 1698.16 2742.2 1702.48C2739.32 1706.56 2737.88 1710.52 2737.88 1714.36C2737.88 1717.72 2739.2 1720.36 2741.84 1722.28C2744.72 1723.96 2749.16 1725.16 2755.16 1725.88L2788.28 1730.92C2805.08 1733.32 2817.92 1738.36 2826.8 1746.04C2835.92 1753.72 2840.48 1764.76 2840.48 1779.16C2840.48 1789.96 2837.48 1798.96 2831.48 1806.16C2825.72 1813.36 2817.68 1818.64 2807.36 1822C2797.28 1825.6 2785.4 1827.4 2771.72 1827.4ZM2772.8 1806.16C2786.72 1806.16 2798 1804 2806.64 1799.68C2815.28 1795.6 2819.6 1788.88 2819.6 1779.52C2819.6 1774.72 2818.52 1770.52 2816.36 1766.92C2814.44 1763.32 2810.6 1760.32 2804.84 1757.92C2799.32 1755.28 2791.16 1753.12 2780.36 1751.44L2753.72 1747.84C2750.12 1750.24 2746.28 1753.24 2742.2 1756.84C2738.12 1760.2 2734.52 1764.04 2731.4 1768.36C2728.52 1772.68 2727.08 1777.6 2727.08 1783.12C2727.08 1791.04 2730.8 1796.8 2738.24 1800.4C2745.92 1804.24 2757.44 1806.16 2772.8 1806.16ZM2773.16 1674.76C2780.84 1674.76 2786.84 1673.2 2791.16 1670.08C2795.72 1666.72 2799.08 1662.4 2801.24 1657.12C2803.64 1651.84 2805.2 1645.96 2805.92 1639.48C2806.88 1633 2807.36 1626.64 2807.36 1620.4C2807.36 1614.16 2806.88 1607.92 2805.92 1601.68C2804.96 1595.44 2803.28 1589.68 2800.88 1584.4C2798.48 1578.88 2795 1574.56 2790.44 1571.44C2786.12 1568.08 2780.36 1566.4 2773.16 1566.4C2765.96 1566.4 2759.96 1568.08 2755.16 1571.44C2750.6 1574.8 2747 1579.24 2744.36 1584.76C2741.96 1590.04 2740.28 1595.8 2739.32 1602.04C2738.6 1608.28 2738.24 1614.4 2738.24 1620.4C2738.24 1626.16 2738.6 1632.28 2739.32 1638.76C2740.04 1645.24 2741.6 1651.24 2744 1656.76C2746.64 1662.04 2750.24 1666.36 2754.8 1669.72C2759.6 1673.08 2765.72 1674.76 2773.16 1674.76ZM2877.08 1800.76L2871.32 1789.24C2877.8 1785.64 2882.24 1781.44 2884.64 1776.64C2887.28 1772.08 2888.6 1766.2 2888.6 1759H2873.12V1719.76H2902.28V1756.12C2902.28 1767.88 2900.36 1777.12 2896.52 1783.84C2892.68 1790.56 2886.2 1796.2 2877.08 1800.76ZM3085.44 1762.6C3065.76 1762.6 3050.52 1758.52 3039.72 1750.36C3029.16 1742.2 3021.84 1731.28 3017.76 1717.6C3013.68 1703.68 3011.64 1688.32 3011.64 1671.52V1555.6C3011.64 1537.6 3013.68 1521.76 3017.76 1508.08C3022.08 1494.4 3029.64 1483.72 3040.44 1476.04C3051.24 1468.36 3066.24 1464.52 3085.44 1464.52C3102.96 1464.52 3116.64 1467.88 3126.48 1474.6C3136.56 1481.32 3143.76 1490.92 3148.08 1503.4C3152.4 1515.64 3154.56 1530.28 3154.56 1547.32V1564.96H3128.64V1548.04C3128.64 1535.32 3127.56 1524.4 3125.4 1515.28C3123.48 1506.16 3119.4 1499.08 3113.16 1494.04C3106.92 1489 3097.8 1486.48 3085.8 1486.48C3072.6 1486.48 3062.64 1489.24 3055.92 1494.76C3049.44 1500.04 3045 1507.6 3042.6 1517.44C3040.44 1527.28 3039.36 1538.68 3039.36 1551.64V1675.84C3039.36 1690.24 3040.68 1702.24 3043.32 1711.84C3046.2 1721.44 3051 1728.64 3057.72 1733.44C3064.44 1738.24 3073.8 1740.64 3085.8 1740.64C3098.04 1740.64 3107.16 1738 3113.16 1732.72C3119.4 1727.44 3123.48 1720.12 3125.4 1710.76C3127.56 1701.16 3128.64 1690 3128.64 1677.28V1658.2H3154.56V1675.48C3154.56 1692.52 3152.52 1707.64 3148.44 1720.84C3144.6 1733.8 3137.64 1744 3127.56 1751.44C3117.72 1758.88 3103.68 1762.6 3085.44 1762.6ZM3228 1762.24C3219.6 1762.24 3212.28 1760.2 3206.04 1756.12C3199.8 1751.8 3194.88 1746.16 3191.28 1739.2C3187.92 1732 3186.24 1724.2 3186.24 1715.8C3186.24 1705.24 3187.68 1696.24 3190.56 1688.8C3193.68 1681.36 3198.48 1674.76 3204.96 1669C3211.68 1663 3220.32 1657.24 3230.88 1651.72C3241.68 1645.96 3254.76 1639.6 3270.12 1632.64V1617.88C3270.12 1605.16 3269.28 1595.2 3267.6 1588C3266.16 1580.56 3263.52 1575.28 3259.68 1572.16C3256.08 1569.04 3250.92 1567.48 3244.2 1567.48C3238.68 1567.48 3233.76 1568.56 3229.44 1570.72C3225.12 1572.88 3221.64 1576.6 3219 1581.88C3216.36 1586.92 3215.04 1594 3215.04 1603.12V1610.32L3189.12 1609.96C3189.36 1588.84 3193.8 1573.24 3202.44 1563.16C3211.32 1552.84 3225.72 1547.68 3245.64 1547.68C3264.36 1547.68 3277.44 1553.32 3284.88 1564.6C3292.56 1575.64 3296.4 1592.92 3296.4 1616.44V1717.6C3296.4 1721.2 3296.52 1725.88 3296.76 1731.64C3297 1737.16 3297.24 1742.44 3297.48 1747.48C3297.72 1752.52 3297.96 1756.36 3298.2 1759H3274.8C3274.32 1754.44 3273.6 1749.4 3272.64 1743.88C3271.68 1738.12 3271.08 1733.56 3270.84 1730.2C3267.96 1738.6 3262.8 1746.04 3255.36 1752.52C3248.16 1759 3239.04 1762.24 3228 1762.24ZM3236.28 1739.92C3241.56 1739.92 3246.36 1738.6 3250.68 1735.96C3255 1733.32 3258.84 1730.2 3262.2 1726.6C3265.56 1722.76 3268.2 1718.92 3270.12 1715.08V1650.28C3259.8 1655.56 3250.92 1660.36 3243.48 1664.68C3236.28 1669 3230.4 1673.2 3225.84 1677.28C3221.28 1681.36 3217.92 1686.04 3215.76 1691.32C3213.6 1696.36 3212.52 1702.36 3212.52 1709.32C3212.52 1720.36 3214.92 1728.28 3219.72 1733.08C3224.52 1737.64 3230.04 1739.92 3236.28 1739.92ZM3338.69 1759V1467.4H3364.97V1759H3338.69ZM3410.74 1759V1550.92H3437.02V1759H3410.74ZM3410.74 1522.12V1486.48H3437.02V1522.12H3410.74ZM3545.06 1762.24C3536.66 1762.24 3529.34 1760.08 3523.1 1755.76C3517.1 1751.44 3512.06 1747 3507.98 1742.44V1759H3481.7V1467.4H3507.98V1568.2C3512.06 1562.92 3517.34 1558.24 3523.82 1554.16C3530.3 1549.84 3538.22 1547.68 3547.58 1547.68C3557.66 1547.68 3565.82 1550.08 3572.06 1554.88C3578.3 1559.44 3583.1 1565.68 3586.46 1573.6C3589.82 1581.52 3592.1 1590.4 3593.3 1600.24C3594.5 1610.08 3595.1 1620.16 3595.1 1630.48V1674.4C3595.1 1692.16 3593.54 1707.64 3590.42 1720.84C3587.54 1733.8 3582.5 1744 3575.3 1751.44C3568.1 1758.64 3558.02 1762.24 3545.06 1762.24ZM3540.38 1741.36C3548.54 1741.36 3554.54 1738.84 3558.38 1733.8C3562.46 1728.76 3565.1 1721.32 3566.3 1711.48C3567.74 1701.4 3568.46 1689.28 3568.46 1675.12V1630.48C3568.46 1617.04 3567.74 1605.76 3566.3 1596.64C3565.1 1587.28 3562.46 1580.2 3558.38 1575.4C3554.54 1570.6 3548.42 1568.2 3540.02 1568.2C3533.54 1568.2 3527.42 1570 3521.66 1573.6C3516.14 1577.2 3511.58 1580.8 3507.98 1584.4V1726.24C3511.82 1730.32 3516.5 1733.92 3522.02 1737.04C3527.54 1739.92 3533.66 1741.36 3540.38 1741.36ZM3632.91 1759V1550.92H3659.55V1579.36C3666.27 1568.32 3673.95 1560.52 3682.59 1555.96C3691.23 1551.16 3699.51 1548.76 3707.43 1548.76C3708.15 1548.76 3708.87 1548.76 3709.59 1548.76C3710.31 1548.76 3711.15 1548.88 3712.11 1549.12V1577.2C3710.43 1576.48 3708.39 1576 3705.99 1575.76C3703.59 1575.28 3701.31 1575.04 3699.15 1575.04C3690.99 1575.04 3683.55 1576.96 3676.83 1580.8C3670.35 1584.64 3664.59 1590.76 3659.55 1599.16V1759H3632.91ZM3772.93 1762.24C3764.53 1762.24 3757.21 1760.2 3750.97 1756.12C3744.73 1751.8 3739.81 1746.16 3736.21 1739.2C3732.85 1732 3731.17 1724.2 3731.17 1715.8C3731.17 1705.24 3732.61 1696.24 3735.49 1688.8C3738.61 1681.36 3743.41 1674.76 3749.89 1669C3756.61 1663 3765.25 1657.24 3775.81 1651.72C3786.61 1645.96 3799.69 1639.6 3815.05 1632.64V1617.88C3815.05 1605.16 3814.21 1595.2 3812.53 1588C3811.09 1580.56 3808.45 1575.28 3804.61 1572.16C3801.01 1569.04 3795.85 1567.48 3789.13 1567.48C3783.61 1567.48 3778.69 1568.56 3774.37 1570.72C3770.05 1572.88 3766.57 1576.6 3763.93 1581.88C3761.29 1586.92 3759.97 1594 3759.97 1603.12V1610.32L3734.05 1609.96C3734.29 1588.84 3738.73 1573.24 3747.37 1563.16C3756.25 1552.84 3770.65 1547.68 3790.57 1547.68C3809.29 1547.68 3822.37 1553.32 3829.81 1564.6C3837.49 1575.64 3841.33 1592.92 3841.33 1616.44V1717.6C3841.33 1721.2 3841.45 1725.88 3841.69 1731.64C3841.93 1737.16 3842.17 1742.44 3842.41 1747.48C3842.65 1752.52 3842.89 1756.36 3843.13 1759H3819.73C3819.25 1754.44 3818.53 1749.4 3817.57 1743.88C3816.61 1738.12 3816.01 1733.56 3815.77 1730.2C3812.89 1738.6 3807.73 1746.04 3800.29 1752.52C3793.09 1759 3783.97 1762.24 3772.93 1762.24ZM3781.21 1739.92C3786.49 1739.92 3791.29 1738.6 3795.61 1735.96C3799.93 1733.32 3803.77 1730.2 3807.13 1726.6C3810.49 1722.76 3813.13 1718.92 3815.05 1715.08V1650.28C3804.73 1655.56 3795.85 1660.36 3788.41 1664.68C3781.21 1669 3775.33 1673.2 3770.77 1677.28C3766.21 1681.36 3762.85 1686.04 3760.69 1691.32C3758.53 1696.36 3757.45 1702.36 3757.45 1709.32C3757.45 1720.36 3759.85 1728.28 3764.65 1733.08C3769.45 1737.64 3774.97 1739.92 3781.21 1739.92ZM3927.93 1761.52C3917.85 1761.52 3910.05 1759.6 3904.53 1755.76C3899.25 1751.68 3895.53 1746.28 3893.37 1739.56C3891.45 1732.6 3890.49 1724.68 3890.49 1715.8V1568.2H3864.93V1550.92H3890.49V1486.48H3916.77V1550.92H3951.33V1568.2H3916.77V1713.28C3916.77 1723.36 3917.85 1730.56 3920.01 1734.88C3922.41 1738.96 3927.45 1741 3935.13 1741C3937.29 1741 3939.69 1740.88 3942.33 1740.64C3945.21 1740.16 3947.85 1739.68 3950.25 1739.2V1759.36C3946.65 1760.08 3942.93 1760.56 3939.09 1760.8C3935.25 1761.28 3931.53 1761.52 3927.93 1761.52ZM3982.38 1759V1550.92H4008.66V1759H3982.38ZM3982.38 1522.12V1486.48H4008.66V1522.12H3982.38ZM4104.46 1762.24C4090.3 1762.24 4079.14 1759.24 4070.98 1753.24C4063.06 1747 4057.42 1738.12 4054.06 1726.6C4050.7 1714.84 4049.02 1700.56 4049.02 1683.76V1626.16C4049.02 1609.36 4050.7 1595.2 4054.06 1583.68C4057.42 1571.92 4063.06 1563.04 4070.98 1557.04C4079.14 1550.8 4090.3 1547.68 4104.46 1547.68C4119.1 1547.68 4130.38 1550.8 4138.3 1557.04C4146.22 1563.04 4151.86 1571.92 4155.22 1583.68C4158.58 1595.2 4160.26 1609.36 4160.26 1626.16V1683.76C4160.26 1700.56 4158.58 1714.84 4155.22 1726.6C4151.86 1738.12 4146.22 1747 4138.3 1753.24C4130.38 1759.24 4119.1 1762.24 4104.46 1762.24ZM4104.46 1742.44C4113.58 1742.44 4120.18 1740.04 4124.26 1735.24C4128.58 1730.44 4131.22 1723.72 4132.18 1715.08C4133.14 1706.2 4133.62 1696.24 4133.62 1685.2V1624.72C4133.62 1613.44 4133.14 1603.6 4132.18 1595.2C4131.22 1586.56 4128.58 1579.84 4124.26 1575.04C4120.18 1570 4113.58 1567.48 4104.46 1567.48C4095.34 1567.48 4088.74 1570 4084.66 1575.04C4080.58 1579.84 4078.06 1586.56 4077.1 1595.2C4076.14 1603.6 4075.66 1613.44 4075.66 1624.72V1685.2C4075.66 1696.24 4076.14 1706.2 4077.1 1715.08C4078.06 1723.72 4080.58 1730.44 4084.66 1735.24C4088.74 1740.04 4095.34 1742.44 4104.46 1742.44ZM4196.77 1759V1550.92H4223.05V1572.52C4229.77 1565.32 4237.33 1559.44 4245.73 1554.88C4254.13 1550.08 4263.25 1547.68 4273.09 1547.68C4280.05 1547.68 4285.93 1549.48 4290.73 1553.08C4295.53 1556.44 4299.13 1561.48 4301.53 1568.2C4303.93 1574.68 4305.13 1582.6 4305.13 1591.96V1759H4278.85V1597.72C4278.85 1586.92 4277.17 1579.36 4273.81 1575.04C4270.69 1570.48 4265.77 1568.2 4259.05 1568.2C4253.05 1568.2 4246.93 1570 4240.69 1573.6C4234.45 1577.2 4228.57 1581.88 4223.05 1587.64V1759H4196.77ZM4347.31 1800.76L4341.55 1789.24C4348.03 1785.64 4352.47 1781.44 4354.87 1776.64C4357.51 1772.08 4358.83 1766.2 4358.83 1759H4343.35V1719.76H4372.51V1756.12C4372.51 1767.88 4370.59 1777.12 4366.75 1783.84C4362.91 1790.56 4356.43 1796.2 4347.31 1800.76ZM4539.47 1759L4471.07 1467.4H4497.35L4552.43 1708.96L4604.27 1467.4H4630.19L4564.31 1759H4539.47ZM4691.21 1762.24C4682.81 1762.24 4675.49 1760.2 4669.25 1756.12C4663.01 1751.8 4658.09 1746.16 4654.49 1739.2C4651.13 1732 4649.45 1724.2 4649.45 1715.8C4649.45 1705.24 4650.89 1696.24 4653.77 1688.8C4656.89 1681.36 4661.69 1674.76 4668.17 1669C4674.89 1663 4683.53 1657.24 4694.09 1651.72C4704.89 1645.96 4717.97 1639.6 4733.33 1632.64V1617.88C4733.33 1605.16 4732.49 1595.2 4730.81 1588C4729.37 1580.56 4726.73 1575.28 4722.89 1572.16C4719.29 1569.04 4714.13 1567.48 4707.41 1567.48C4701.89 1567.48 4696.97 1568.56 4692.65 1570.72C4688.33 1572.88 4684.85 1576.6 4682.21 1581.88C4679.57 1586.92 4678.25 1594 4678.25 1603.12V1610.32L4652.33 1609.96C4652.57 1588.84 4657.01 1573.24 4665.65 1563.16C4674.53 1552.84 4688.93 1547.68 4708.85 1547.68C4727.57 1547.68 4740.65 1553.32 4748.09 1564.6C4755.77 1575.64 4759.61 1592.92 4759.61 1616.44V1717.6C4759.61 1721.2 4759.73 1725.88 4759.97 1731.64C4760.21 1737.16 4760.45 1742.44 4760.69 1747.48C4760.93 1752.52 4761.17 1756.36 4761.41 1759H4738.01C4737.53 1754.44 4736.81 1749.4 4735.85 1743.88C4734.89 1738.12 4734.29 1733.56 4734.05 1730.2C4731.17 1738.6 4726.01 1746.04 4718.57 1752.52C4711.37 1759 4702.25 1762.24 4691.21 1762.24ZM4699.49 1739.92C4704.77 1739.92 4709.57 1738.6 4713.89 1735.96C4718.21 1733.32 4722.05 1730.2 4725.41 1726.6C4728.77 1722.76 4731.41 1718.92 4733.33 1715.08V1650.28C4723.01 1655.56 4714.13 1660.36 4706.69 1664.68C4699.49 1669 4693.61 1673.2 4689.05 1677.28C4684.49 1681.36 4681.13 1686.04 4678.97 1691.32C4676.81 1696.36 4675.73 1702.36 4675.73 1709.32C4675.73 1720.36 4678.13 1728.28 4682.93 1733.08C4687.73 1737.64 4693.25 1739.92 4699.49 1739.92ZM4801.89 1759V1467.4H4828.17V1759H4801.89ZM4873.95 1759V1550.92H4900.23V1759H4873.95ZM4873.95 1522.12V1486.48H4900.23V1522.12H4873.95ZM4990.62 1762.24C4972.86 1762.24 4960.02 1755.52 4952.1 1742.08C4944.42 1728.64 4940.58 1706.32 4940.58 1675.12V1636.6C4940.58 1618.36 4941.9 1602.64 4944.54 1589.44C4947.18 1576.24 4951.98 1566.04 4958.94 1558.84C4966.14 1551.4 4976.34 1547.68 4989.54 1547.68C4997.7 1547.68 5004.78 1549.6 5010.78 1553.44C5017.02 1557.04 5022.18 1561.12 5026.26 1565.68V1467.4H5052.54V1759H5026.26V1744.24C5022.18 1748.8 5017.14 1753 5011.14 1756.84C5005.38 1760.44 4998.54 1762.24 4990.62 1762.24ZM4996.02 1741.36C5001.78 1741.36 5007.18 1740.04 5012.22 1737.4C5017.5 1734.76 5022.18 1731.52 5026.26 1727.68V1582.96C5022.66 1579.6 5018.22 1576.36 5012.94 1573.24C5007.66 1569.88 5001.78 1568.2 4995.3 1568.2C4983.78 1568.2 4976.1 1573.36 4972.26 1583.68C4968.66 1593.76 4966.86 1608.52 4966.86 1627.96V1677.28C4966.86 1691.2 4967.58 1702.96 4969.02 1712.56C4970.7 1722.16 4973.58 1729.36 4977.66 1734.16C4981.98 1738.96 4988.1 1741.36 4996.02 1741.36ZM5129.25 1762.24C5120.85 1762.24 5113.53 1760.2 5107.29 1756.12C5101.05 1751.8 5096.13 1746.16 5092.53 1739.2C5089.17 1732 5087.49 1724.2 5087.49 1715.8C5087.49 1705.24 5088.93 1696.24 5091.81 1688.8C5094.93 1681.36 5099.73 1674.76 5106.21 1669C5112.93 1663 5121.57 1657.24 5132.13 1651.72C5142.93 1645.96 5156.01 1639.6 5171.37 1632.64V1617.88C5171.37 1605.16 5170.53 1595.2 5168.85 1588C5167.41 1580.56 5164.77 1575.28 5160.93 1572.16C5157.33 1569.04 5152.17 1567.48 5145.45 1567.48C5139.93 1567.48 5135.01 1568.56 5130.69 1570.72C5126.37 1572.88 5122.89 1576.6 5120.25 1581.88C5117.61 1586.92 5116.29 1594 5116.29 1603.12V1610.32L5090.37 1609.96C5090.61 1588.84 5095.05 1573.24 5103.69 1563.16C5112.57 1552.84 5126.97 1547.68 5146.89 1547.68C5165.61 1547.68 5178.69 1553.32 5186.13 1564.6C5193.81 1575.64 5197.65 1592.92 5197.65 1616.44V1717.6C5197.65 1721.2 5197.77 1725.88 5198.01 1731.64C5198.25 1737.16 5198.49 1742.44 5198.73 1747.48C5198.97 1752.52 5199.21 1756.36 5199.45 1759H5176.05C5175.57 1754.44 5174.85 1749.4 5173.89 1743.88C5172.93 1738.12 5172.33 1733.56 5172.09 1730.2C5169.21 1738.6 5164.05 1746.04 5156.61 1752.52C5149.41 1759 5140.29 1762.24 5129.25 1762.24ZM5137.53 1739.92C5142.81 1739.92 5147.61 1738.6 5151.93 1735.96C5156.25 1733.32 5160.09 1730.2 5163.45 1726.6C5166.81 1722.76 5169.45 1718.92 5171.37 1715.08V1650.28C5161.05 1655.56 5152.17 1660.36 5144.73 1664.68C5137.53 1669 5131.65 1673.2 5127.09 1677.28C5122.53 1681.36 5119.17 1686.04 5117.01 1691.32C5114.85 1696.36 5113.77 1702.36 5113.77 1709.32C5113.77 1720.36 5116.17 1728.28 5120.97 1733.08C5125.77 1737.64 5131.29 1739.92 5137.53 1739.92ZM5284.25 1761.52C5274.17 1761.52 5266.37 1759.6 5260.85 1755.76C5255.57 1751.68 5251.85 1746.28 5249.69 1739.56C5247.77 1732.6 5246.81 1724.68 5246.81 1715.8V1568.2H5221.25V1550.92H5246.81V1486.48H5273.09V1550.92H5307.65V1568.2H5273.09V1713.28C5273.09 1723.36 5274.17 1730.56 5276.33 1734.88C5278.73 1738.96 5283.77 1741 5291.45 1741C5293.61 1741 5296.01 1740.88 5298.65 1740.64C5301.53 1740.16 5304.17 1739.68 5306.57 1739.2V1759.36C5302.97 1760.08 5299.25 1760.56 5295.41 1760.8C5291.57 1761.28 5287.85 1761.52 5284.25 1761.52ZM5338.71 1759V1550.92H5364.99V1759H5338.71ZM5338.71 1522.12V1486.48H5364.99V1522.12H5338.71ZM5460.79 1762.24C5446.63 1762.24 5435.47 1759.24 5427.31 1753.24C5419.39 1747 5413.75 1738.12 5410.39 1726.6C5407.03 1714.84 5405.35 1700.56 5405.35 1683.76V1626.16C5405.35 1609.36 5407.03 1595.2 5410.39 1583.68C5413.75 1571.92 5419.39 1563.04 5427.31 1557.04C5435.47 1550.8 5446.63 1547.68 5460.79 1547.68C5475.43 1547.68 5486.71 1550.8 5494.63 1557.04C5502.55 1563.04 5508.19 1571.92 5511.55 1583.68C5514.91 1595.2 5516.59 1609.36 5516.59 1626.16V1683.76C5516.59 1700.56 5514.91 1714.84 5511.55 1726.6C5508.19 1738.12 5502.55 1747 5494.63 1753.24C5486.71 1759.24 5475.43 1762.24 5460.79 1762.24ZM5460.79 1742.44C5469.91 1742.44 5476.51 1740.04 5480.59 1735.24C5484.91 1730.44 5487.55 1723.72 5488.51 1715.08C5489.47 1706.2 5489.95 1696.24 5489.95 1685.2V1624.72C5489.95 1613.44 5489.47 1603.6 5488.51 1595.2C5487.55 1586.56 5484.91 1579.84 5480.59 1575.04C5476.51 1570 5469.91 1567.48 5460.79 1567.48C5451.67 1567.48 5445.07 1570 5440.99 1575.04C5436.91 1579.84 5434.39 1586.56 5433.43 1595.2C5432.47 1603.6 5431.99 1613.44 5431.99 1624.72V1685.2C5431.99 1696.24 5432.47 1706.2 5433.43 1715.08C5434.39 1723.72 5436.91 1730.44 5440.99 1735.24C5445.07 1740.04 5451.67 1742.44 5460.79 1742.44ZM5553.1 1759V1550.92H5579.38V1572.52C5586.1 1565.32 5593.66 1559.44 5602.06 1554.88C5610.46 1550.08 5619.58 1547.68 5629.42 1547.68C5636.38 1547.68 5642.26 1549.48 5647.06 1553.08C5651.86 1556.44 5655.46 1561.48 5657.86 1568.2C5660.26 1574.68 5661.46 1582.6 5661.46 1591.96V1759H5635.18V1597.72C5635.18 1586.92 5633.5 1579.36 5630.14 1575.04C5627.02 1570.48 5622.1 1568.2 5615.38 1568.2C5609.38 1568.2 5603.26 1570 5597.02 1573.6C5590.78 1577.2 5584.9 1581.88 5579.38 1587.64V1759H5553.1Z" fill="black"/>
</svg>
